<svg xmlns="http://www.w3.org/2000/svg" width="20" height="20" viewBox="0 0 20 20">
    <g id="people_ic" transform="translate(-477 -228)">
        <g id="그룹_1593" data-name="그룹 1593" transform="translate(480.3 230.32)">
            <path id="패스_1472" data-name="패스 1472"
                  d="M1765.351,1243.92a3.292,3.292,0,1,1,3.292-3.292A3.3,3.3,0,0,1,1765.351,1243.92Zm0-5.828a2.536,2.536,0,1,0,2.536,2.536A2.539,2.539,0,0,0,1765.351,1238.091Z"
                  transform="translate(-1758.659 -1236.655)" fill="#4b525d"/>
            <path id="패스_1473" data-name="패스 1473"
                  d="M1752.588,1291.868H1739.96a.378.378,0,0,1-.378-.378,6.807,6.807,0,0,1,5.884-6.622.378.378,0,0,1,.423.46l-.615,2.644,1.041,1.041,1.043-1.043-.576-2.627a.378.378,0,0,1,.431-.454,6.833,6.833,0,0,1,5.753,6.6A.378.378,0,0,1,1752.588,1291.868Zm-12.237-.756H1752.2a6.078,6.078,0,0,0-4.55-5.359l.495,2.256a.378.378,0,0,1-.1.348l-1.457,1.457a.378.378,0,0,1-.535,0l-1.457-1.457a.377.377,0,0,1-.1-.353l.531-2.282A6.05,6.05,0,0,0,1740.351,1291.112Z"
                  transform="translate(-1739.582 -1277.01)" fill="#4b525d"/>
        </g>
        <rect id="사각형_1072" data-name="사각형 1072" width="20" height="20" transform="translate(477 228)" fill="none"/>
    </g>
</svg>
